<?xml version="1.0" encoding="utf-8"?>
<!-- Generator: Adobe Illustrator 26.0.3, SVG Export Plug-In . SVG Version: 6.00 Build 0)  -->
<svg version="1.1" id="Layer_1" xmlns="http://www.w3.org/2000/svg" xmlns:xlink="http://www.w3.org/1999/xlink" x="0px" y="0px"
	 viewBox="0 0 499.28 93.09" style="enable-background:new 0 0 499.28 93.09;" xml:space="preserve">
<style type="text/css">
	.st0{fill:#211B1C;}
	.st1{fill:url(#SVGID_1_);}
	.st2{fill:url(#SVGID_00000088112749218239050920000000874636830121213842_);}
	.st3{fill:url(#SVGID_00000098907949589254931090000011156407337400230031_);}
	.st4{fill:url(#SVGID_00000049914227666389200360000017072824752354379935_);}
	.st5{fill:url(#SVGID_00000129176675663577030180000001066839457308843691_);}
	.st6{fill:url(#SVGID_00000165220306849693363640000003710563365307008645_);}
	.st7{fill:url(#SVGID_00000040564500820670489580000010231399430929241733_);}
	.st8{fill:url(#SVGID_00000027581574700052034800000013347991825864754603_);}
	.st9{fill:url(#SVGID_00000018930641842148207430000013975916012456066460_);}
	.st10{fill:url(#SVGID_00000175316120875864836720000008347534684979937177_);}
	.st11{fill:url(#SVGID_00000134224892795906239040000005770550513925677461_);}
	.st12{fill:url(#SVGID_00000000910400371816085140000001270100083960488323_);}
	.st13{fill:url(#SVGID_00000116201227611517625420000001438404479181476283_);}
	.st14{fill:url(#SVGID_00000142149761643895756360000006637891279115045776_);}
	.st15{fill:url(#SVGID_00000136413697312135689290000014592072128696231082_);}
	.st16{fill:url(#SVGID_00000135681340265660128430000000088790031495847608_);}
	.st17{fill:url(#SVGID_00000080899458238313814470000015620950720964791742_);}
	.st18{fill:url(#SVGID_00000145023197817072194300000012604495865944092861_);}
	.st19{fill:url(#SVGID_00000140711070680354009040000007277348928129702062_);}
	.st20{fill:url(#SVGID_00000071545932651054470480000011921510368356801455_);}
	.st21{fill:url(#SVGID_00000120538051195157584870000003566304407994313882_);}
	.st22{fill:url(#SVGID_00000111900944924951667180000010221033822887157428_);}
	.st23{fill:url(#SVGID_00000117649337856521957050000005122654946287242631_);}
</style>
<g>
	<path class="st0" d="M490.45,43.11h0.97v-7.39V23.27v-7.39h-7.39h-29.26h-7.39l0,7.39l0,16.88c-0.43-0.5-0.87-0.98-1.34-1.45
		c-1.79-1.79-3.78-3.29-5.93-4.49l4.16-4.12l-5-5.25l-8.26-8.68l-5.22-5.49l-5.36,5.36c-3.92,3.92-8.27,8.57-11.87,14.11l-0.25-0.57
		l-4.07-9.45l-1.92-4.47h-4.87h-26.43h-4.37c-0.13-0.13-0.25-0.26-0.38-0.39c-7.63-7.66-17.9-11.87-28.93-11.87
		c-1.29,0-2.6,0.06-3.88,0.17l-0.03,0l-0.03,0c-8.82,0.85-17.1,4.22-23.94,9.66l-11.52,6.87l-24.54,14.62l-7.4,4.41l1.24-16.04
		l0.61-7.96h-7.98h-15.35h-6.84l-0.53,6.82l-2.14,27.48h-3l1.92-26.37l0.58-7.93h-7.95h-15.35h-6.85l-0.14,1.86L204,15.13h-6.46
		h-18.86h-5.24l-1.73,4.94l-2.23,6.36c-1.96-3.87-5.09-7.11-9.28-9.47c-6.68-3.78-14.44-4.57-19.77-4.57v3.7c0,0,0,0,0,0l0-3.7
		c-3.34,0-6.62,0.32-9.56,0.91h-4.87h-13.54h-0.02h-5.35h-5.77H87.53h-1.22h-5.7H79.1H64.04h-4.78h-5.29h-0.71H16.52H9.76l-0.6,6.74
		L4.33,74.59l-0.71,8.04h8.07h14.88h6.74l0.11-1.14h7.69h13.84h5.72l0.36-1.4l0.05,1.4h7.15h7.9h4.26h3.64h3.93h8.22h6.25l0.11-0.65
		l1.09,0.04l0.74,0.03l0.2,0.01l0.2,0l12.8-0.26l4.21-0.09c5.21,1.38,10.32,2.08,15.19,2.08c4.83,0,9.37-0.68,13.49-2.01l-0.39,1.11
		l10.69-0.26l14.24-0.34l5.1-0.12l1.69-4.81l1.65-4.69l0.4,2.86l0.91,6.52l6.58-0.16l13.18-0.31l3.34-0.08l28.38,0.21l6.85,0.05
		l0.03-0.33l16.17,0.04l-19.69,7.72l41.96-1.04c0.15,0,14.99-0.37,28.7-0.62l5.89-0.11c5.14,2.25,10.77,3.44,16.61,3.44
		c1.29,0,2.6-0.06,3.88-0.17l0.03,0l0.03,0c9.64-0.93,18.64-4.87,25.81-11.24c2.65,2.31,5.94,4.15,9.82,5.51
		c4.41,1.54,9.38,2.35,14.36,2.35c5.49,0,11.71-2.4,16.66-6.42c1.55-1.26,2.93-2.64,4.12-4.12c4.89,5.33,11.9,8.68,19.69,8.68
		c7.51,0,14.3-3.11,19.16-8.12c0.42,0.58,0.85,1.14,1.32,1.68c3.36,3.88,9.64,8.5,20.48,8.5c7.9,0,15.08-3.05,20.21-8.59
		c4.74-5.12,7.35-11.86,7.35-18.96C495.67,52.88,493.84,47.46,490.45,43.11z M427.15,76.9L427.15,76.9L427.15,76.9L427.15,76.9z"/>
	<g>
		
			<linearGradient id="SVGID_1_" gradientUnits="userSpaceOnUse" x1="468.4274" y1="10.4642" x2="468.4274" y2="51.8376" gradientTransform="matrix(1 0 0 -1 0 95.0916)">
			<stop  offset="0.27" style="stop-color:#F7941D"/>
			<stop  offset="1" style="stop-color:#F5EA14"/>
		</linearGradient>
		<path class="st1" d="M454.77,23.27v27.63c14.97,0,20.34,3.04,20.34,7.91c0,4.37-1.76,7.92-6.13,7.92c-4.37,0-7.03-3.13-7.03-7.92
			h-13.38c0,11.01,5.84,20.16,19.53,20.16c12.53,0,20.17-9.87,20.17-20.17c0-11.62-9.21-18.64-21.06-18.64v-4.44h16.81V23.27H454.77
			"/>
		
			<linearGradient id="SVGID_00000096777189994404964610000008541338252593139861_" gradientUnits="userSpaceOnUse" x1="427.1501" y1="10.4642" x2="427.1501" y2="51.8376" gradientTransform="matrix(1 0 0 -1 0 95.0916)">
			<stop  offset="0.27" style="stop-color:#F7941D"/>
			<stop  offset="1" style="stop-color:#F5EA14"/>
		</linearGradient>
		<path style="fill:url(#SVGID_00000096777189994404964610000008541338252593139861_);" d="M427.15,38.25c-0.15,0-0.3,0-0.45,0
			c2.2-2.95,4.61-5.72,7.22-8.31l-8.26-8.68c-9.83,9.83-17.83,20.01-17.83,36.31c0,10.67,8.65,19.32,19.31,19.32
			c10.67,0,19.32-8.65,19.32-19.31c0-10.67-8.65-19.32-19.31-19.32c0,0,0,0-0.01,0V38.25z M427.15,65.48
			c-4.37,0-7.91-3.55-7.91-7.92h0.03c0-0.31,0-0.63,0.03-0.95c0.53-4.34,4.48-7.42,8.82-6.89c4.34,0.53,7.42,4.48,6.89,8.82
			c-0.49,3.97-3.86,6.95-7.86,6.95L427.15,65.48z"/>
		
			<linearGradient id="SVGID_00000095297583521549916790000006645699168647931567_" gradientUnits="userSpaceOnUse" x1="385.3699" y1="10.4642" x2="385.3699" y2="51.8376" gradientTransform="matrix(1 0 0 -1 0 95.0916)">
			<stop  offset="0.27" style="stop-color:#F7941D"/>
			<stop  offset="1" style="stop-color:#F5EA14"/>
		</linearGradient>
		<path style="fill:url(#SVGID_00000095297583521549916790000006645699168647931567_);" d="M371.04,23.04h26.43l4.07,9.45
			l-8.03,10.22c0,0,11.98,2.31,11.98,17.69c0,11.76-11.87,18.35-18.8,18.35c-7.75,0-16.92-2.42-21.42-8.24l8.51-9.46
			c0,0,5.44,3.89,10.61,3.89s8.18-1.9,8.18-5.85c0-7.38-10.38-7.15-14.44-6.59v-9.34l7.97-9.01h-15.04V23.04z"/>
		
			<linearGradient id="SVGID_00000140692874398859309130000011284892363259587968_" gradientUnits="userSpaceOnUse" x1="104.9972" y1="10.4642" x2="104.9972" y2="51.8376" gradientTransform="matrix(1 0 0 -1 0 95.0916)">
			<stop  offset="0.27" style="stop-color:#F7941D"/>
			<stop  offset="1" style="stop-color:#F5EA14"/>
		</linearGradient>
		<path style="fill:url(#SVGID_00000140692874398859309130000011284892363259587968_);" d="M112.43,20.68l-4.53,26.3l-6.59-26.3
			H87.53L84.01,74.1h12.15l3.3-19.6l4.42,19l0.74,0.03l12.8-0.26l8.57-52.57h-13.54H112.43z"/>
		
			<linearGradient id="SVGID_00000089565043213513299000000015228257442922710673_" gradientUnits="userSpaceOnUse" x1="32.4753" y1="10.4642" x2="32.4753" y2="51.8376" gradientTransform="matrix(1 0 0 -1 0 95.0916)">
			<stop  offset="0.27" style="stop-color:#F7941D"/>
			<stop  offset="1" style="stop-color:#F5EA14"/>
		</linearGradient>
		<path style="fill:url(#SVGID_00000089565043213513299000000015228257442922710673_);" d="M53.26,20.68l-5.42,14.02l-17.69-0.96
			l-0.25,9.99L45,44.4l-4.96,12.41l-11.67-0.94l-1.8,19.37H11.69l4.83-54.56H53.26z"/>
		
			<linearGradient id="SVGID_00000116200831647852511180000013625972259661310886_" gradientUnits="userSpaceOnUse" x1="143.7667" y1="10.4642" x2="143.7667" y2="51.8376" gradientTransform="matrix(1 0 0 -1 0 95.0916)">
			<stop  offset="0.27" style="stop-color:#F7941D"/>
			<stop  offset="1" style="stop-color:#F5EA14"/>
		</linearGradient>
		<path style="fill:url(#SVGID_00000116200831647852511180000013625972259661310886_);" d="M164.45,36.8
			c-0.41,5.7-3.52,9.13-8.16,11.06c4.28,1.95,6.52,5.39,6.12,11.1c-0.74,10.39-15.9,20.73-39.32,14.31l8.53-52.58
			C142.5,18.22,164.45,19.87,164.45,36.8z M140.99,41.37c6.11-0.11,10.54-1.39,10.92-5.52c0.4-4.33-2.39-5.55-9.07-5.55
			L140.99,41.37z M137.48,63.47c6.89-0.13,12.21-1.42,12.58-5.55c0.4-4.33-3.21-5.55-10.73-5.51L137.48,63.47z"/>
		
			<linearGradient id="SVGID_00000047057990606633305620000016503436026753567400_" gradientUnits="userSpaceOnUse" x1="222.5319" y1="10.4642" x2="222.5319" y2="51.8376" gradientTransform="matrix(1 0 0 -1 0 95.0916)">
			<stop  offset="0.27" style="stop-color:#F7941D"/>
			<stop  offset="1" style="stop-color:#F5EA14"/>
		</linearGradient>
		<path style="fill:url(#SVGID_00000047057990606633305620000016503436026753567400_);" d="M226.59,22.52l-2.49,34.29h13.54
			l-1.35,16.36l-28.85-0.21l3.81-50.44H226.59"/>
		
			<linearGradient id="SVGID_00000178195411343821803000000008779112531641178805_" gradientUnits="userSpaceOnUse" x1="256.7243" y1="10.4642" x2="256.7243" y2="51.8376" gradientTransform="matrix(1 0 0 -1 0 95.0916)">
			<stop  offset="0.27" style="stop-color:#F7941D"/>
			<stop  offset="1" style="stop-color:#F5EA14"/>
		</linearGradient>
		<path style="fill:url(#SVGID_00000178195411343821803000000008779112531641178805_);" d="M259.89,22.52l-2.64,34.29h15.57l-0.07,1
			l-14.11,9.58l13.78-0.5l-0.28,6.06l-31.51-0.07l3.92-50.36H259.89"/>
		
			<linearGradient id="SVGID_00000145780504344332734250000003203894304568543896_" gradientUnits="userSpaceOnUse" x1="182.4493" y1="10.4642" x2="182.4493" y2="51.8376" gradientTransform="matrix(1 0 0 -1 0 95.0916)">
			<stop  offset="0.27" style="stop-color:#F7941D"/>
			<stop  offset="1" style="stop-color:#F5EA14"/>
		</linearGradient>
		<path style="fill:url(#SVGID_00000145780504344332734250000003203894304568543896_);" d="M178.67,22.52h18.86l6.8,50.52
			l-13.18,0.31l-1.72-12.31h-10.15l-4.48,12.7l-14.24,0.34L178.67,22.52z M187.82,49.49l-0.74-15.99l-4.07,15.97h4.79"/>
		
			<linearGradient id="SVGID_00000054231335664830997360000004675624218189681342_" gradientUnits="userSpaceOnUse" x1="60.7406" y1="10.4642" x2="60.7406" y2="51.8376" gradientTransform="matrix(1 0 0 -1 0 95.0916)">
			<stop  offset="0.27" style="stop-color:#F7941D"/>
			<stop  offset="1" style="stop-color:#F5EA14"/>
		</linearGradient>
		<path style="fill:url(#SVGID_00000054231335664830997360000004675624218189681342_);" d="M59.09,58.06l8.61,0.7l0.51,15.33
			c3.17,0,10.98,0,12.16,0L79.1,20.68H59.26L41.1,74.1h13.84L59.09,58.06z M67.41,30.57L67.13,48.7l-4.07-0.33L67.41,30.57z"/>
		
			<linearGradient id="SVGID_00000058586977780808093990000002045675827643766159_" gradientUnits="userSpaceOnUse" x1="335.0586" y1="10.4642" x2="335.0586" y2="51.8376" gradientTransform="matrix(1 0 0 -1 0 95.0916)">
			<stop  offset="0.27" style="stop-color:#F7941D"/>
			<stop  offset="1" style="stop-color:#F5EA14"/>
		</linearGradient>
		<path style="fill:url(#SVGID_00000058586977780808093990000002045675827643766159_);" d="M337.22,22.59
			c12.16,0,21.69,9.39,21.69,21.8c0,13.15-10.7,24.82-23.86,26.01c-0.74,0.07-1.45,0.1-2.16,0.1c-12.14,0-21.69-9.37-21.69-21.8
			c0-13.16,10.7-24.82,23.85-26.01C335.8,22.63,336.51,22.59,337.22,22.59 M337.22,13.49c-0.98,0-1.99,0.04-2.98,0.13
			c-8.74,0.84-16.86,4.92-22.75,11.43c-6.05,6.6-9.39,14.99-9.39,23.64c0,17.32,13.52,30.9,30.79,30.9c0.98,0,1.99-0.04,2.98-0.13
			c8.74-0.84,16.85-4.92,22.75-11.43c6.05-6.6,9.39-15,9.39-23.64C368.01,27.06,354.49,13.49,337.22,13.49L337.22,13.49z"/>
		
			<linearGradient id="SVGID_00000090988831193815647600000008133623842861950362_" gradientUnits="userSpaceOnUse" x1="336.7619" y1="10.4642" x2="336.7619" y2="51.8376" gradientTransform="matrix(1 0 0 -1 0 95.0916)">
			<stop  offset="0.27" style="stop-color:#F7941D"/>
			<stop  offset="1" style="stop-color:#F5EA14"/>
		</linearGradient>
		<polygon style="fill:url(#SVGID_00000090988831193815647600000008133623842861950362_);" points="336.76,51.69 328.89,56.54 
			330.39,47.64 324.02,42 332.83,39.93 336.76,31.59 340.7,39.22 349.5,39.7 343.13,46.48 344.64,55.12 		"/>
		
			<linearGradient id="SVGID_00000052783245720694315730000003302240307864681124_" gradientUnits="userSpaceOnUse" x1="289.4835" y1="7.7975" x2="289.4835" y2="51.0683" gradientTransform="matrix(1 0 0 -1 0 95.0916)">
			<stop  offset="0.27" style="stop-color:#F7941D"/>
			<stop  offset="1" style="stop-color:#F5EA14"/>
		</linearGradient>
		<path style="fill:url(#SVGID_00000052783245720694315730000003302240307864681124_);" d="M301.75,26.44l-24.54,14.62l19.48-3.25
			C297.81,33.79,299.51,29.96,301.75,26.44z"/>
		
			<linearGradient id="SVGID_00000124140350708910883810000007343448362122414259_" gradientUnits="userSpaceOnUse" x1="283.4787" y1="11.8475" x2="283.4787" y2="51.7008" gradientTransform="matrix(1 0 0 -1 0 95.0916)">
			<stop  offset="0.27" style="stop-color:#F7941D"/>
			<stop  offset="1" style="stop-color:#F5EA14"/>
		</linearGradient>
		<path style="fill:url(#SVGID_00000124140350708910883810000007343448362122414259_);" d="M295.19,48.7c0-0.58,0.06-1.15,0.08-1.73
			l-25.85,16.76c0,0,21.45-1.48,28.11-1.76C295.98,57.72,295.19,53.23,295.19,48.7z"/>
		
			<linearGradient id="SVGID_00000000183616831513992180000008470325617715398579_" gradientUnits="userSpaceOnUse" x1="295.7398" y1="10.4642" x2="295.7398" y2="51.8376" gradientTransform="matrix(1 0 0 -1 0 95.0916)">
			<stop  offset="0.27" style="stop-color:#F7941D"/>
			<stop  offset="1" style="stop-color:#F5EA14"/>
		</linearGradient>
		<path style="fill:url(#SVGID_00000000183616831513992180000008470325617715398579_);" d="M302.52,71.31l-21.16,8.29
			c0,0,14.86-0.37,28.75-0.62C307.22,76.81,304.67,74.22,302.52,71.31z"/>
		
			<linearGradient id="SVGID_00000006667613585485361070000001077205684799703965_" gradientUnits="userSpaceOnUse" x1="468.4274" y1="10.4642" x2="468.4274" y2="51.8376" gradientTransform="matrix(1 0 0 -1 0 95.0916)">
			<stop  offset="0.27" style="stop-color:#F7941D"/>
			<stop  offset="1" style="stop-color:#F5EA14"/>
		</linearGradient>
		<path style="fill:url(#SVGID_00000006667613585485361070000001077205684799703965_);" d="M454.77,23.27v27.63
			c14.97,0,20.34,3.04,20.34,7.91c0,4.37-1.76,7.92-6.13,7.92c-4.37,0-7.03-3.13-7.03-7.92h-13.38c0,11.01,5.84,20.16,19.53,20.16
			c12.53,0,20.17-9.87,20.17-20.17c0-11.62-9.21-18.64-21.06-18.64v-4.44h16.81V23.27H454.77"/>
		
			<linearGradient id="SVGID_00000167389145783804482060000001152710266140074930_" gradientUnits="userSpaceOnUse" x1="427.1501" y1="10.4642" x2="427.1501" y2="51.8376" gradientTransform="matrix(1 0 0 -1 0 95.0916)">
			<stop  offset="0.27" style="stop-color:#F7941D"/>
			<stop  offset="1" style="stop-color:#F5EA14"/>
		</linearGradient>
		<path style="fill:url(#SVGID_00000167389145783804482060000001152710266140074930_);" d="M427.15,38.25c-0.15,0-0.3,0-0.45,0
			c2.2-2.95,4.61-5.72,7.22-8.31l-8.26-8.68c-9.83,9.83-17.83,20.01-17.83,36.31c0,10.67,8.65,19.32,19.31,19.32
			c10.67,0,19.32-8.65,19.32-19.31c0-10.67-8.65-19.32-19.31-19.32c0,0,0,0-0.01,0V38.25z M427.15,65.48
			c-4.37,0-7.91-3.55-7.91-7.92h0.03c0-0.31,0-0.63,0.03-0.95c0.53-4.34,4.48-7.42,8.82-6.89c4.34,0.53,7.42,4.48,6.89,8.82
			c-0.49,3.97-3.86,6.95-7.86,6.95L427.15,65.48z"/>
		
			<linearGradient id="SVGID_00000009579211488081603320000003282241106857877170_" gradientUnits="userSpaceOnUse" x1="385.3699" y1="10.4642" x2="385.3699" y2="51.8376" gradientTransform="matrix(1 0 0 -1 0 95.0916)">
			<stop  offset="0.27" style="stop-color:#F7941D"/>
			<stop  offset="1" style="stop-color:#F5EA14"/>
		</linearGradient>
		<path style="fill:url(#SVGID_00000009579211488081603320000003282241106857877170_);" d="M371.04,23.04h26.43l4.07,9.45
			l-8.03,10.22c0,0,11.98,2.31,11.98,17.69c0,11.76-11.87,18.35-18.8,18.35c-7.75,0-16.92-2.42-21.42-8.24l8.51-9.46
			c0,0,5.44,3.89,10.61,3.89s8.18-1.9,8.18-5.85c0-7.38-10.38-7.15-14.44-6.59v-9.34l7.97-9.01h-15.04V23.04z"/>
		
			<linearGradient id="SVGID_00000048479099154266155930000009073767357414686605_" gradientUnits="userSpaceOnUse" x1="335.0586" y1="10.4642" x2="335.0586" y2="51.8376" gradientTransform="matrix(1 0 0 -1 0 95.0916)">
			<stop  offset="0.27" style="stop-color:#F7941D"/>
			<stop  offset="1" style="stop-color:#F5EA14"/>
		</linearGradient>
		<path style="fill:url(#SVGID_00000048479099154266155930000009073767357414686605_);" d="M337.22,22.59
			c12.16,0,21.69,9.39,21.69,21.8c0,13.15-10.7,24.82-23.86,26.01c-0.74,0.07-1.45,0.1-2.16,0.1c-12.14,0-21.69-9.37-21.69-21.8
			c0-13.16,10.7-24.82,23.85-26.01C335.8,22.63,336.51,22.59,337.22,22.59 M337.22,13.49c-0.98,0-1.99,0.04-2.98,0.13
			c-8.74,0.84-16.86,4.92-22.75,11.43c-6.05,6.6-9.39,14.99-9.39,23.64c0,17.32,13.52,30.9,30.79,30.9c0.98,0,1.99-0.04,2.98-0.13
			c8.74-0.84,16.85-4.92,22.75-11.43c6.05-6.6,9.39-15,9.39-23.64C368.01,27.06,354.49,13.49,337.22,13.49L337.22,13.49z"/>
		
			<linearGradient id="SVGID_00000047768251366423368450000002819551557358897327_" gradientUnits="userSpaceOnUse" x1="336.7619" y1="10.4642" x2="336.7619" y2="51.8376" gradientTransform="matrix(1 0 0 -1 0 95.0916)">
			<stop  offset="0.27" style="stop-color:#F7941D"/>
			<stop  offset="1" style="stop-color:#F5EA14"/>
		</linearGradient>
		<polygon style="fill:url(#SVGID_00000047768251366423368450000002819551557358897327_);" points="336.76,51.69 328.89,56.54 
			330.39,47.64 324.02,42 332.83,39.93 336.76,31.59 340.7,39.22 349.5,39.7 343.13,46.48 344.64,55.12 		"/>
		
			<linearGradient id="SVGID_00000052793971780679006610000006727571926024116384_" gradientUnits="userSpaceOnUse" x1="289.4835" y1="7.7975" x2="289.4835" y2="51.0683" gradientTransform="matrix(1 0 0 -1 0 95.0916)">
			<stop  offset="0.27" style="stop-color:#F7941D"/>
			<stop  offset="1" style="stop-color:#F5EA14"/>
		</linearGradient>
		<path style="fill:url(#SVGID_00000052793971780679006610000006727571926024116384_);" d="M301.75,26.44l-24.54,14.62l19.48-3.25
			C297.81,33.79,299.51,29.96,301.75,26.44z"/>
		
			<linearGradient id="SVGID_00000056406979508672093030000007525375768546756285_" gradientUnits="userSpaceOnUse" x1="283.4787" y1="11.8475" x2="283.4787" y2="51.7008" gradientTransform="matrix(1 0 0 -1 0 95.0916)">
			<stop  offset="0.27" style="stop-color:#F7941D"/>
			<stop  offset="1" style="stop-color:#F5EA14"/>
		</linearGradient>
		<path style="fill:url(#SVGID_00000056406979508672093030000007525375768546756285_);" d="M295.19,48.7c0-0.58,0.06-1.15,0.08-1.73
			l-25.85,16.76c0,0,21.45-1.48,28.11-1.76C295.98,57.72,295.19,53.23,295.19,48.7z"/>
		
			<linearGradient id="SVGID_00000111872834947674386450000007269485280897532347_" gradientUnits="userSpaceOnUse" x1="295.7398" y1="10.4642" x2="295.7398" y2="51.8376" gradientTransform="matrix(1 0 0 -1 0 95.0916)">
			<stop  offset="0.27" style="stop-color:#F7941D"/>
			<stop  offset="1" style="stop-color:#F5EA14"/>
		</linearGradient>
		<path style="fill:url(#SVGID_00000111872834947674386450000007269485280897532347_);" d="M302.52,71.31l-21.16,8.29
			c0,0,14.86-0.37,28.75-0.62C307.22,76.81,304.67,74.22,302.52,71.31z"/>
	</g>
</g>
</svg>
