<svg id="Layer_1" data-name="Layer 1" xmlns="http://www.w3.org/2000/svg" xmlns:xlink="http://www.w3.org/1999/xlink" viewBox="0 0 70 70"><defs><style>.cls-1{fill:url(#linear-gradient);}.cls-2{fill:#10112e;}</style><linearGradient id="linear-gradient" x1="35" y1="74.89" x2="35" y2="25.95" gradientUnits="userSpaceOnUse"><stop offset="0.27" stop-color="#f7941d"/><stop offset="1" stop-color="#f5ea14"/></linearGradient></defs><circle class="cls-1" cx="35" cy="35" r="31.91"/><path class="cls-2" d="M54.43,22.94a15.82,15.82,0,0,1-4.58,1.26,8,8,0,0,0,3.5-4.42,15.86,15.86,0,0,1-5.07,1.94A8,8,0,0,0,34.69,29a22.7,22.7,0,0,1-16.44-8.34,8,8,0,0,0,2.47,10.65,8,8,0,0,1-3.61-1v.09a8,8,0,0,0,6.4,7.82,7.82,7.82,0,0,1-2.1.28,7.48,7.48,0,0,1-1.5-.14,8,8,0,0,0,7.45,5.54,16,16,0,0,1-9.89,3.42,17.29,17.29,0,0,1-1.9-.11A22.62,22.62,0,0,0,27.8,50.8c14.67,0,22.7-12.15,22.7-22.7v-1A15.92,15.92,0,0,0,54.43,22.94Z"/></svg>