<svg id="Layer_1" data-name="Layer 1" xmlns="http://www.w3.org/2000/svg" xmlns:xlink="http://www.w3.org/1999/xlink" viewBox="0 0 87.3 55.92"><defs><style>.cls-1{fill:url(#linear-gradient);}.cls-2{fill:url(#linear-gradient-2);}.cls-3{fill:url(#linear-gradient-3);}.cls-4{fill:url(#linear-gradient-4);}.cls-5{fill:url(#linear-gradient-5);}</style><linearGradient id="linear-gradient" x1="58.83" y1="-6.38" x2="58.83" y2="48.91" gradientUnits="userSpaceOnUse"><stop offset="0.42" stop-color="#ffff6d"/><stop offset="0.5" stop-color="#fff463"/><stop offset="0.66" stop-color="#ffd549"/><stop offset="0.86" stop-color="#ffa41f"/><stop offset="1" stop-color="#ff8000"/></linearGradient><linearGradient id="linear-gradient-2" x1="60.22" y1="-6.38" x2="60.22" y2="48.91" xlink:href="#linear-gradient"/><linearGradient id="linear-gradient-3" x1="21.73" y1="-6.38" x2="21.73" y2="48.91" xlink:href="#linear-gradient"/><linearGradient id="linear-gradient-4" x1="14.97" y1="-6.38" x2="14.97" y2="48.91" xlink:href="#linear-gradient"/><linearGradient id="linear-gradient-5" x1="26.83" y1="-6.38" x2="26.83" y2="48.91" xlink:href="#linear-gradient"/></defs><path class="cls-1" d="M60.59,8.46A17.42,17.42,0,0,1,78.24,26.21,21.71,21.71,0,0,1,58.83,47.37,17.74,17.74,0,0,1,39.41,29.71,21.73,21.73,0,0,1,58.83,8.54c.59,0,1.18-.08,1.76-.08m0-7.4c-.8,0-1.62,0-2.43.11A29.11,29.11,0,0,0,32,29.71,24.84,24.84,0,0,0,57.07,54.86c.8,0,1.62,0,2.42-.11A29.11,29.11,0,0,0,85.65,26.21,24.84,24.84,0,0,0,60.59,1.06Z"/><polygon class="cls-2" points="60.22 32.15 53.8 36.09 55.03 28.84 49.84 24.26 57.01 22.57 60.22 15.79 63.42 21.99 70.59 22.39 65.4 27.91 66.63 34.94 60.22 32.15"/><path class="cls-3" d="M31.72,11.6,11.75,23,27.6,20.85A34.19,34.19,0,0,1,31.72,11.6Z"/><path class="cls-4" d="M26.38,29.71c0-.47,0-.93.06-1.4L1.65,42.47s12.84-1.56,26.64-1.95A31.49,31.49,0,0,1,26.38,29.71Z"/><path class="cls-5" d="M32.35,48.11,15.12,54.86s12.1-.31,23.41-.5A29.77,29.77,0,0,1,32.35,48.11Z"/></svg>