<svg id="Layer_1" data-name="Layer 1" xmlns="http://www.w3.org/2000/svg" xmlns:xlink="http://www.w3.org/1999/xlink" viewBox="0 0 83.16 72.76"><defs><style>.cls-1{fill:url(#linear-gradient);}.cls-2{fill:url(#linear-gradient-2);}</style><linearGradient id="linear-gradient" x1="41.58" y1="-1.96" x2="41.58" y2="52.3" gradientUnits="userSpaceOnUse"><stop offset="0.42" stop-color="#ffff6d"/><stop offset="0.5" stop-color="#fff463"/><stop offset="0.66" stop-color="#ffd549"/><stop offset="0.86" stop-color="#ffa41f"/><stop offset="1" stop-color="#ff8000"/></linearGradient><linearGradient id="linear-gradient-2" x1="41.58" y1="-1.96" x2="41.58" y2="52.3" xlink:href="#linear-gradient"/></defs><path class="cls-1" d="M81.07,8.42a2.58,2.58,0,0,0-2.73-2.3h-11c0-.59,0-1.18,0-1.78A2.56,2.56,0,0,0,64.64,2H18.51a2.57,2.57,0,0,0-2.73,2.36c0,.6,0,1.19,0,1.78h-11a2.58,2.58,0,0,0-2.73,2.3A40,40,0,0,0,5.3,23.79a35.49,35.49,0,0,0,8.53,12.28A39,39,0,0,0,30.4,45a26.16,26.16,0,0,0,2.19,1.47c2.27,7.62.57,11-2.7,13.72a2.4,2.4,0,0,0-.62.78c-3.29,2-5.1,4.6-5.1,7.48a2.57,2.57,0,0,0,2.73,2.36H56.25A2.57,2.57,0,0,0,59,68.43c0-2.88-1.8-5.52-5.09-7.48a2.31,2.31,0,0,0-.63-.78c-3.26-2.7-5-6.1-2.69-13.72C51.31,46,52,45.51,52.75,45a39.07,39.07,0,0,0,16.58-8.91,35.33,35.33,0,0,0,8.52-12.28A39.85,39.85,0,0,0,81.07,8.42ZM61.89,6.69A70.39,70.39,0,0,1,59,26.11a33.9,33.9,0,0,1-6.45,12.11,23.34,23.34,0,0,1-3,2.86l-.16.12A19,19,0,0,1,46.76,43h0c-.32.17-.65.33-1,.48a10.82,10.82,0,0,1-4.18,1.14,10.89,10.89,0,0,1-4.19-1.14c-.32-.15-.64-.3-1-.47l0,0A18.34,18.34,0,0,1,33.7,41.2l-.16-.12a22.08,22.08,0,0,1-3-2.86,33.75,33.75,0,0,1-6.45-12.11A70,70,0,0,1,21.27,6.69ZM44.31,55.25a12.5,12.5,0,0,0,.89,2.9,29.89,29.89,0,0,0-7.24,0,13,13,0,0,0,.89-2.9A17.47,17.47,0,0,0,38.77,49a11.78,11.78,0,0,0,5.62,0A17.47,17.47,0,0,0,44.31,55.25ZM17.89,32.92a30.71,30.71,0,0,1-7.4-10.61A37.9,37.9,0,0,1,7.64,10.84H16a69.17,69.17,0,0,0,2.88,16.51,42.29,42.29,0,0,0,4.21,9.41A30.05,30.05,0,0,1,17.89,32.92ZM30.75,66.07a8.23,8.23,0,0,1,1.92-1.41,19,19,0,0,1,8.91-2,19,19,0,0,1,8.9,2,7.82,7.82,0,0,1,1.92,1.41Zm42-43.9a31,31,0,0,1-7.4,10.69,30.06,30.06,0,0,1-5.25,3.9,42.29,42.29,0,0,0,4.21-9.41,69.17,69.17,0,0,0,2.88-16.51h8.35A37.81,37.81,0,0,1,72.73,22.17Z"/><path class="cls-2" d="M47.53,33a6.64,6.64,0,0,1-3.83,2q-.15.06-.15.18l.06,1.8a.31.31,0,0,1-.1.24.33.33,0,0,1-.24.1H39.78a.33.33,0,0,1-.25-.1.31.31,0,0,1-.1-.24l.06-1.86c0-.08-.05-.13-.14-.17a6.77,6.77,0,0,1-3.77-2.12,5.74,5.74,0,0,1-1.36-3.86v-.55a.37.37,0,0,1,.1-.24.33.33,0,0,1,.25-.1h3.77a.33.33,0,0,1,.25.1.37.37,0,0,1,.1.24v.35a2,2,0,0,0,.91,1.64,3.89,3.89,0,0,0,2.44.7,2.5,2.5,0,0,0,1.77-.54,1.68,1.68,0,0,0,.57-1.26,1.35,1.35,0,0,0-.67-1.22,14.13,14.13,0,0,0-2.39-1c-.27-.08-.47-.15-.6-.2a20.65,20.65,0,0,1-3.09-1.31,6.62,6.62,0,0,1-2.25-1.94,5,5,0,0,1-.93-3.08,5.32,5.32,0,0,1,1.33-3.66,6.55,6.55,0,0,1,3.57-2,.15.15,0,0,0,.11-.17l0-2.12a.33.33,0,0,1,.1-.24.33.33,0,0,1,.25-.1h3.46a.34.34,0,0,1,.34.34l-.06,2.15a.15.15,0,0,0,.12.17,7,7,0,0,1,3.76,2.22,5.82,5.82,0,0,1,1.42,3.94v.4a.34.34,0,0,1-.34.34H44.67a.3.3,0,0,1-.24-.1.33.33,0,0,1-.1-.24v-.2a2.38,2.38,0,0,0-.85-1.78,3.25,3.25,0,0,0-2.27-.77,2.72,2.72,0,0,0-1.68.46,1.49,1.49,0,0,0-.61,1.28,1.52,1.52,0,0,0,.38,1.05,3.54,3.54,0,0,0,1.19.76c.53.23,1.36.54,2.49.94,1.28.46,2.28.86,3,1.2a6.1,6.1,0,0,1,2,1.68,4.67,4.67,0,0,1,.94,3.05A5.47,5.47,0,0,1,47.53,33Z"/></svg>