<svg id="Layer_1" data-name="Layer 1" xmlns="http://www.w3.org/2000/svg" xmlns:xlink="http://www.w3.org/1999/xlink" viewBox="0 0 70 70"><defs><style>.cls-1{fill:url(#linear-gradient);}.cls-2{fill:#10112e;}</style><linearGradient id="linear-gradient" x1="35" y1="74.89" x2="35" y2="25.95" gradientUnits="userSpaceOnUse"><stop offset="0.27" stop-color="#f7941d"/><stop offset="1" stop-color="#f5ea14"/></linearGradient></defs><circle class="cls-1" cx="35" cy="35" r="31.91"/><path class="cls-2" d="M35,24.67a10,10,0,1,0,10,10h0A10,10,0,0,0,35,24.67Zm0,16.46a6.48,6.48,0,1,1,6.48-6.48A6.48,6.48,0,0,1,35,41.13Z"/><circle class="cls-2" cx="45.4" cy="24.27" r="2.34"/><path class="cls-2" d="M15.58,34.65c0,5.28,0,6,.12,8a14.13,14.13,0,0,0,.91,4.72,9.88,9.88,0,0,0,5.67,5.68A14.37,14.37,0,0,0,27,54c2.11.1,2.74.12,8,.12s6,0,8-.12a14.42,14.42,0,0,0,4.72-.9,9.69,9.69,0,0,0,3.4-2.24,9.24,9.24,0,0,0,2.24-3.44,14.13,14.13,0,0,0,.91-4.72c.1-2.11.12-2.74.12-8s0-5.95-.12-8a14.13,14.13,0,0,0-.91-4.72,9.88,9.88,0,0,0-5.67-5.68A14.64,14.64,0,0,0,43,15.33c-2.11-.09-2.74-.11-8-.11s-5.94,0-8,.11a14.7,14.7,0,0,0-4.72.91,9.54,9.54,0,0,0-3.43,2.24,9.16,9.16,0,0,0-2.24,3.44,14.13,14.13,0,0,0-.91,4.72C15.6,28.7,15.58,29.37,15.58,34.65Zm3.51,0c0-5.19,0-5.81.11-7.86a10.81,10.81,0,0,1,.7-3.6A6.08,6.08,0,0,1,21.36,21a6.3,6.3,0,0,1,2.24-1.46,10.64,10.64,0,0,1,3.61-.67c2.05-.1,2.67-.12,7.86-.12s5.8,0,7.84.12a10.65,10.65,0,0,1,3.62.67A5.92,5.92,0,0,1,48.76,21a6,6,0,0,1,1.46,2.24,10.57,10.57,0,0,1,.7,3.6c.09,2.05.12,2.67.12,7.86s0,5.81-.12,7.85a10.58,10.58,0,0,1-.7,3.61,6,6,0,0,1-1.46,2.24,6.26,6.26,0,0,1-2.23,1.46,10.65,10.65,0,0,1-3.62.67c-2,.1-2.66.12-7.84.12s-5.81,0-7.86-.12a10.64,10.64,0,0,1-3.61-.67,6,6,0,0,1-2.24-1.46,6.3,6.3,0,0,1-1.46-2.24,10.82,10.82,0,0,1-.7-3.61C19.11,40.46,19.09,39.84,19.09,34.65Z"/></svg>