<svg id="Layer_1" data-name="Layer 1" xmlns="http://www.w3.org/2000/svg" xmlns:xlink="http://www.w3.org/1999/xlink" viewBox="0 0 99.9 65.08"><defs><style>.cls-1{fill:url(#linear-gradient);}.cls-2{fill:url(#linear-gradient-2);}.cls-3{fill:url(#linear-gradient-3);}.cls-4{fill:url(#linear-gradient-4);}</style><linearGradient id="linear-gradient" x1="66.13" y1="-1.9" x2="66.13" y2="53.55" gradientUnits="userSpaceOnUse"><stop offset="0.42" stop-color="#ffff6d"/><stop offset="0.5" stop-color="#fff463"/><stop offset="0.66" stop-color="#ffd549"/><stop offset="0.86" stop-color="#ffa41f"/><stop offset="1" stop-color="#ff8000"/></linearGradient><linearGradient id="linear-gradient-2" x1="49.77" y1="-1.9" x2="49.77" y2="53.55" xlink:href="#linear-gradient"/><linearGradient id="linear-gradient-3" x1="19.84" y1="-1.9" x2="19.84" y2="53.55" xlink:href="#linear-gradient"/><linearGradient id="linear-gradient-4" x1="33.27" y1="-1.9" x2="33.27" y2="53.55" xlink:href="#linear-gradient"/></defs><polygon class="cls-1" points="66.13 51.79 46.25 64.04 50.04 41.55 33.95 27.32 56.19 22.08 66.13 1.04 76.08 20.29 98.31 21.51 82.22 38.65 86.02 60.45 66.13 51.79"/><polygon class="cls-2" points="62.05 1.04 58.86 7.79 37.5 17.05 62.05 1.04"/><polygon class="cls-3" points="29.87 29.36 38.08 36.63 1.59 39.82 29.87 29.36"/><polygon class="cls-4" points="42.16 64.04 43.61 55.47 22.94 53.03 42.16 64.04"/></svg>