<svg id="Layer_1" data-name="Layer 1" xmlns="http://www.w3.org/2000/svg" xmlns:xlink="http://www.w3.org/1999/xlink" viewBox="0 0 150 97"><defs><style>.cls-1{fill:#211b1c;}.cls-2{fill:url(#linear-gradient);}.cls-3{fill:url(#linear-gradient-2);}.cls-4{fill:url(#linear-gradient-3);}.cls-5{fill:url(#linear-gradient-4);}.cls-6{fill:#fff;}</style><linearGradient id="linear-gradient" x1="105.13" y1="-46.42" x2="105.13" y2="66.66" gradientUnits="userSpaceOnUse"><stop offset="0.42" stop-color="#ffff6d"/><stop offset="0.5" stop-color="#fff463"/><stop offset="0.66" stop-color="#ffd549"/><stop offset="0.86" stop-color="#ffa41f"/><stop offset="1" stop-color="#ff8000"/></linearGradient><linearGradient id="linear-gradient-2" x1="58.12" y1="-46.42" x2="58.12" y2="66.66" xlink:href="#linear-gradient"/><linearGradient id="linear-gradient-3" x1="49.55" y1="-46.42" x2="49.55" y2="66.66" xlink:href="#linear-gradient"/><linearGradient id="linear-gradient-4" x1="64.57" y1="-46.42" x2="64.57" y2="66.66" xlink:href="#linear-gradient"/></defs><path class="cls-1" d="M136.15,17.43A40.32,40.32,0,0,0,107.36,5.61c-1.28,0-2.58.06-3.87.18A44.52,44.52,0,0,0,79.9,15.24l-12.28,7L42.31,36.65,13.88,52.85,46.31,48.5l7.47-1L29.51,61.36,2.09,77l31.34-3.81C33.58,73.2,46.84,71.6,62,71L47.42,76.66,13.62,89.9,49.91,89c.15,0,15.46-.4,29.6-.63l7.42-.13a41.05,41.05,0,0,0,16,3.19c1.28,0,2.58-.06,3.86-.18a45.67,45.67,0,0,0,41.15-44.93A40.57,40.57,0,0,0,136.15,17.43Z"/><path class="cls-2" d="M107.36,23.79a22.08,22.08,0,0,1,22.37,22.49c0,13.57-11,25.6-24.6,26.83-.76.06-1.5.1-2.23.1A22.08,22.08,0,0,1,80.52,50.72c0-13.57,11-25.6,24.61-26.83.75-.06,1.49-.1,2.23-.1m0-9.38c-1,0-2,0-3.08.14A36.9,36.9,0,0,0,71.14,50.72,31.48,31.48,0,0,0,102.9,82.59c1,0,2,0,3.07-.14a36.92,36.92,0,0,0,33.15-36.17,31.48,31.48,0,0,0-31.76-31.87Z"/><path class="cls-3" d="M70.77,27.76,45.46,42.19l20.09-2.7A43.64,43.64,0,0,1,70.77,27.76Z"/><path class="cls-4" d="M64,50.72c0-.59.06-1.18.09-1.78l-31.42,18s16.26-2,33.76-2.47A39.86,39.86,0,0,1,64,50.72Z"/><path class="cls-5" d="M71.57,74,49.74,82.59s15.33-.4,29.66-.63A38.17,38.17,0,0,1,71.57,74Z"/><path class="cls-6" d="M105.17,55c0,.06.07.08.15.08h9.26a.56.56,0,0,1,.43.16.58.58,0,0,1,.16.43v5.09a.58.58,0,0,1-.16.43.56.56,0,0,1-.43.16H95.91a.55.55,0,0,1-.59-.59V56a.87.87,0,0,1,.31-.7c1.17-1,2.34-2.12,3.52-3.31l2.24-2.26,2.61-2.6c2.33-2.29,3.5-3.92,3.5-4.91a1.92,1.92,0,0,0-.7-1.53A2.61,2.61,0,0,0,105,40a2.68,2.68,0,0,0-1.83.61,2,2,0,0,0-.7,1.61V43a.52.52,0,0,1-.58.58H95.67a.52.52,0,0,1-.58-.58V41.09a6.67,6.67,0,0,1,1.5-3.87,8.65,8.65,0,0,1,3.54-2.55,12.93,12.93,0,0,1,4.88-.89,11.73,11.73,0,0,1,5.25,1.11,8.26,8.26,0,0,1,3.45,3A7.65,7.65,0,0,1,114.89,42a7.08,7.08,0,0,1-.76,3.15,15.34,15.34,0,0,1-2.23,3.27q-1.56,1.74-5,4.82l-1.68,1.56C105.17,54.88,105.14,54.93,105.17,55Z"/></svg>