<svg id="Layer_1" data-name="Layer 1" xmlns="http://www.w3.org/2000/svg" xmlns:xlink="http://www.w3.org/1999/xlink" viewBox="0 0 150 102"><defs><style>.cls-1{fill:#211b1c;}.cls-2{fill:url(#linear-gradient);}.cls-3{fill:url(#linear-gradient-2);}.cls-4{fill:url(#linear-gradient-3);}.cls-5{fill:url(#linear-gradient-4);}.cls-6{fill:#fff;}</style><linearGradient id="linear-gradient" x1="105.13" y1="-43.92" x2="105.13" y2="69.16" gradientUnits="userSpaceOnUse"><stop offset="0.42" stop-color="#ffff6d"/><stop offset="0.5" stop-color="#fff463"/><stop offset="0.66" stop-color="#ffd549"/><stop offset="0.86" stop-color="#ffa41f"/><stop offset="1" stop-color="#ff8000"/></linearGradient><linearGradient id="linear-gradient-2" x1="58.12" y1="-43.92" x2="58.12" y2="69.16" xlink:href="#linear-gradient"/><linearGradient id="linear-gradient-3" x1="49.55" y1="-43.92" x2="49.55" y2="69.16" xlink:href="#linear-gradient"/><linearGradient id="linear-gradient-4" x1="64.57" y1="-43.92" x2="64.57" y2="69.16" xlink:href="#linear-gradient"/></defs><path class="cls-1" d="M136.15,19.93A40.32,40.32,0,0,0,107.36,8.11c-1.28,0-2.58.06-3.87.18A44.52,44.52,0,0,0,79.9,17.74l-12.28,7L42.31,39.15,13.88,55.35,46.31,51l7.47-1L29.51,63.86,2.09,79.52l31.34-3.81c.15,0,13.41-1.61,28.57-2.26L47.42,79.16,13.62,92.4l36.29-.94c.15,0,15.46-.4,29.6-.63l7.42-.13a41.05,41.05,0,0,0,16,3.19c1.28,0,2.58-.06,3.86-.18a45.67,45.67,0,0,0,41.15-44.93A40.57,40.57,0,0,0,136.15,19.93Z"/><path class="cls-2" d="M107.36,26.29a22.08,22.08,0,0,1,22.37,22.49c0,13.57-11,25.6-24.6,26.83-.76.06-1.5.1-2.23.1A22.08,22.08,0,0,1,80.52,53.22c0-13.57,11-25.6,24.61-26.83.75-.06,1.49-.1,2.23-.1m0-9.38c-1,0-2,0-3.08.14A36.9,36.9,0,0,0,71.14,53.22,31.48,31.48,0,0,0,102.9,85.09c1,0,2,0,3.07-.14a36.92,36.92,0,0,0,33.15-36.17,31.48,31.48,0,0,0-31.76-31.87Z"/><path class="cls-3" d="M70.77,30.26,45.46,44.69,65.55,42A43.64,43.64,0,0,1,70.77,30.26Z"/><path class="cls-4" d="M64,53.22c0-.59.06-1.18.09-1.78l-31.42,18s16.26-2,33.76-2.47A39.86,39.86,0,0,1,64,53.22Z"/><path class="cls-5" d="M71.57,76.54,49.74,85.09s15.33-.4,29.66-.63A38.17,38.17,0,0,1,71.57,76.54Z"/><path class="cls-6" d="M114.89,54.6a10.4,10.4,0,0,1-.81,4,8.44,8.44,0,0,1-3.47,4.07,11,11,0,0,1-11.15,0,8.92,8.92,0,0,1-3.55-4.13,9.31,9.31,0,0,1-.78-3.42.51.51,0,0,1,.58-.58h6.23a.56.56,0,0,1,.62.54,5,5,0,0,0,.5,1.75A2.06,2.06,0,0,0,105,57.87a2.13,2.13,0,0,0,2-1.09,4.73,4.73,0,0,0,.58-2.41,5.13,5.13,0,0,0-.54-2.45,2.24,2.24,0,0,0-2-1.17,2,2,0,0,0-1,.31,17.64,17.64,0,0,0-1.46,1,.53.53,0,0,1-.39.15.49.49,0,0,1-.43-.27L98.59,47.6a.74.74,0,0,1-.12-.39.48.48,0,0,1,.28-.43l5.68-3.69c.07,0,.1-.07.07-.14a.15.15,0,0,0-.15-.1H96.49a.59.59,0,0,1-.43-.15.61.61,0,0,1-.15-.43v-5.1a.61.61,0,0,1,.15-.43.59.59,0,0,1,.43-.15h17.35a.59.59,0,0,1,.43.15.61.61,0,0,1,.16.43v5.72a.82.82,0,0,1-.35.74l-4.21,2.92c-.13.1-.1.19.08.27a6.56,6.56,0,0,1,4.17,3.89A9.82,9.82,0,0,1,114.89,54.6Z"/></svg>