<svg id="Layer_1" data-name="Layer 1" xmlns="http://www.w3.org/2000/svg" xmlns:xlink="http://www.w3.org/1999/xlink" viewBox="0 0 150 91"><defs><style>.cls-1{fill:#211b1c;}.cls-2{fill:url(#linear-gradient);}.cls-3{fill:url(#linear-gradient-2);}.cls-4{fill:url(#linear-gradient-3);}.cls-5{fill:url(#linear-gradient-4);}.cls-6{fill:#fff;}</style><linearGradient id="linear-gradient" x1="105.13" y1="-49.42" x2="105.13" y2="63.66" gradientUnits="userSpaceOnUse"><stop offset="0.42" stop-color="#ffff6d"/><stop offset="0.5" stop-color="#fff463"/><stop offset="0.66" stop-color="#ffd549"/><stop offset="0.86" stop-color="#ffa41f"/><stop offset="1" stop-color="#ff8000"/></linearGradient><linearGradient id="linear-gradient-2" x1="58.12" y1="-49.42" x2="58.12" y2="63.66" xlink:href="#linear-gradient"/><linearGradient id="linear-gradient-3" x1="49.55" y1="-49.42" x2="49.55" y2="63.66" xlink:href="#linear-gradient"/><linearGradient id="linear-gradient-4" x1="64.57" y1="-49.42" x2="64.57" y2="63.66" xlink:href="#linear-gradient"/></defs><path class="cls-1" d="M136.15,14.43A40.32,40.32,0,0,0,107.36,2.61c-1.28,0-2.58.06-3.87.18A44.52,44.52,0,0,0,79.9,12.24l-12.28,7L42.31,33.65,13.88,49.85,46.31,45.5l7.47-1L29.51,58.36,2.09,74l31.34-3.81C33.58,70.2,46.84,68.6,62,68L47.42,73.66,13.62,86.9,49.91,86c.15,0,15.46-.4,29.6-.63l7.42-.13a41.05,41.05,0,0,0,16,3.19c1.28,0,2.58-.06,3.86-.18a45.67,45.67,0,0,0,41.15-44.93A40.57,40.57,0,0,0,136.15,14.43Z"/><path class="cls-2" d="M107.36,20.79a22.08,22.08,0,0,1,22.37,22.49c0,13.57-11,25.6-24.6,26.83-.76.06-1.5.1-2.23.1A22.08,22.08,0,0,1,80.52,47.72c0-13.57,11-25.6,24.61-26.83.75-.06,1.49-.1,2.23-.1m0-9.38c-1,0-2,0-3.08.14A36.9,36.9,0,0,0,71.14,47.72,31.48,31.48,0,0,0,102.9,79.59c1,0,2,0,3.07-.14a36.92,36.92,0,0,0,33.15-36.17,31.48,31.48,0,0,0-31.76-31.87Z"/><path class="cls-3" d="M70.77,24.76,45.46,39.19l20.09-2.7A43.64,43.64,0,0,1,70.77,24.76Z"/><path class="cls-4" d="M64,47.72c0-.59.06-1.18.09-1.78l-31.42,18s16.26-2,33.76-2.47A39.86,39.86,0,0,1,64,47.72Z"/><path class="cls-5" d="M71.57,71,49.74,79.59s15.33-.4,29.66-.63A38.17,38.17,0,0,1,71.57,71Z"/><path class="cls-6" d="M104,31.09h6.34a.56.56,0,0,1,.43.16.57.57,0,0,1,.16.42V57.74a.58.58,0,0,1-.16.43.56.56,0,0,1-.43.16h-6.15a.54.54,0,0,1-.42-.16.54.54,0,0,1-.16-.43V37.94a.27.27,0,0,0-.06-.16.1.1,0,0,0-.13,0l-3.7.74h-.16c-.31,0-.46-.18-.46-.54V33.46a.66.66,0,0,1,.46-.7l3.7-1.51A1.55,1.55,0,0,1,104,31.09Z"/></svg>