<svg id="Layer_1" data-name="Layer 1" xmlns="http://www.w3.org/2000/svg" xmlns:xlink="http://www.w3.org/1999/xlink" viewBox="0 0 149 105"><defs><style>.cls-1{fill:#211b1c;}.cls-2{fill:url(#linear-gradient);}.cls-3{fill:url(#linear-gradient-2);}.cls-4{fill:url(#linear-gradient-3);}.cls-5{fill:url(#linear-gradient-4);}.cls-6{fill:#fff;}</style><linearGradient id="linear-gradient" x1="104.63" y1="-42.42" x2="104.63" y2="70.66" gradientUnits="userSpaceOnUse"><stop offset="0.42" stop-color="#ffff6d"/><stop offset="0.5" stop-color="#fff463"/><stop offset="0.66" stop-color="#ffd549"/><stop offset="0.86" stop-color="#ffa41f"/><stop offset="1" stop-color="#ff8000"/></linearGradient><linearGradient id="linear-gradient-2" x1="57.62" y1="-42.42" x2="57.62" y2="70.66" xlink:href="#linear-gradient"/><linearGradient id="linear-gradient-3" x1="49.05" y1="-42.42" x2="49.05" y2="70.66" xlink:href="#linear-gradient"/><linearGradient id="linear-gradient-4" x1="64.07" y1="-42.42" x2="64.07" y2="70.66" xlink:href="#linear-gradient"/></defs><path class="cls-1" d="M135.65,21.43A40.32,40.32,0,0,0,106.86,9.61c-1.28,0-2.58.06-3.87.18A44.52,44.52,0,0,0,79.4,19.24l-12.28,7L41.81,40.65,13.38,56.85,45.81,52.5l7.47-1L29,65.36,1.59,81l31.34-3.81c.15,0,13.41-1.61,28.57-2.26L46.92,80.66,13.12,93.9,49.41,93c.15,0,15.46-.4,29.6-.63l7.42-.13a41.05,41.05,0,0,0,16,3.19c1.28,0,2.58-.06,3.86-.18a45.67,45.67,0,0,0,41.15-44.93A40.57,40.57,0,0,0,135.65,21.43Z"/><path class="cls-2" d="M106.86,27.79a22.08,22.08,0,0,1,22.37,22.49c0,13.57-11,25.6-24.6,26.83-.76.06-1.5.1-2.23.1A22.08,22.08,0,0,1,80,54.72c0-13.57,11-25.6,24.61-26.83.75-.06,1.49-.1,2.23-.1m0-9.38c-1,0-2,0-3.08.14A36.9,36.9,0,0,0,70.64,54.72,31.48,31.48,0,0,0,102.4,86.59c1,0,2,0,3.07-.14a36.92,36.92,0,0,0,33.15-36.17,31.48,31.48,0,0,0-31.76-31.87Z"/><path class="cls-3" d="M70.27,31.76,45,46.19l20.09-2.7A43.64,43.64,0,0,1,70.27,31.76Z"/><path class="cls-4" d="M63.5,54.72c0-.59.06-1.18.09-1.78l-31.42,18s16.26-2,33.76-2.47A39.86,39.86,0,0,1,63.5,54.72Z"/><path class="cls-5" d="M71.07,78,49.24,86.59s15.33-.4,29.66-.63A38.17,38.17,0,0,1,71.07,78Z"/><path class="cls-6" d="M115.46,52.37a.56.56,0,0,1,.16.43v5.29a.56.56,0,0,1-.16.43.57.57,0,0,1-.42.16h-1.6a.17.17,0,0,0-.19.19v5.87a.58.58,0,0,1-.16.43.56.56,0,0,1-.43.16h-6.15a.54.54,0,0,1-.42-.16.54.54,0,0,1-.16-.43V58.87a.17.17,0,0,0-.19-.19H93.6a.58.58,0,0,1-.43-.16.56.56,0,0,1-.16-.43V54a1.7,1.7,0,0,1,.16-.74l6.34-14.71a.62.62,0,0,1,.66-.43h6.58a.46.46,0,0,1,.43.2.61.61,0,0,1,0,.5L101.53,52a.22.22,0,0,0,0,.16.14.14,0,0,0,.12.08h4.09c.13,0,.19-.07.19-.2V48.17a.56.56,0,0,1,.16-.43.57.57,0,0,1,.42-.15h6.15a.54.54,0,0,1,.59.58V52c0,.13.06.2.19.2H115A.57.57,0,0,1,115.46,52.37Z"/></svg>